<mxfile host="Electron" agent="Mozilla/5.0 (Windows NT 10.0; Win64; x64) AppleWebKit/537.36 (KHTML, like Gecko) draw.io/24.7.8 Chrome/128.0.6613.36 Electron/32.0.1 Safari/537.36" version="24.7.8">
  <diagram name="Page-1" id="TJPXLlhSD54rY1HrDO-9">
    <mxGraphModel dx="1219" dy="1814" grid="1" gridSize="10" guides="1" tooltips="1" connect="1" arrows="1" fold="1" page="1" pageScale="1" pageWidth="850" pageHeight="1100" math="0" shadow="0">
      <root>
        <mxCell id="0" />
        <mxCell id="1" parent="0" />
        <mxCell id="aEqy1lIlVKsA6bxr-jBi-1" value="" style="rounded=1;whiteSpace=wrap;html=1;" vertex="1" parent="1">
          <mxGeometry x="360" y="180" width="140" height="190" as="geometry" />
        </mxCell>
        <mxCell id="aEqy1lIlVKsA6bxr-jBi-2" value="Tambah" style="rounded=0;whiteSpace=wrap;html=1;" vertex="1" parent="1">
          <mxGeometry x="380" y="218" width="100" height="40" as="geometry" />
        </mxCell>
        <mxCell id="aEqy1lIlVKsA6bxr-jBi-3" value="Hapus" style="rounded=0;whiteSpace=wrap;html=1;" vertex="1" parent="1">
          <mxGeometry x="380" y="266" width="100" height="40" as="geometry" />
        </mxCell>
        <mxCell id="aEqy1lIlVKsA6bxr-jBi-40" style="edgeStyle=none;rounded=0;orthogonalLoop=1;jettySize=auto;html=1;exitX=1;exitY=0.5;exitDx=0;exitDy=0;entryX=0;entryY=0.5;entryDx=0;entryDy=0;" edge="1" parent="1" source="aEqy1lIlVKsA6bxr-jBi-4" target="aEqy1lIlVKsA6bxr-jBi-37">
          <mxGeometry relative="1" as="geometry" />
        </mxCell>
        <mxCell id="aEqy1lIlVKsA6bxr-jBi-4" value="Edit" style="rounded=0;whiteSpace=wrap;html=1;" vertex="1" parent="1">
          <mxGeometry x="380" y="318" width="100" height="40" as="geometry" />
        </mxCell>
        <mxCell id="aEqy1lIlVKsA6bxr-jBi-6" value="" style="rounded=1;whiteSpace=wrap;html=1;" vertex="1" parent="1">
          <mxGeometry x="550" y="20" width="120" height="110" as="geometry" />
        </mxCell>
        <mxCell id="aEqy1lIlVKsA6bxr-jBi-9" value="index.php" style="text;strokeColor=none;fillColor=none;align=left;verticalAlign=middle;spacingLeft=4;spacingRight=4;overflow=hidden;points=[[0,0.5],[1,0.5]];portConstraint=eastwest;rotatable=0;whiteSpace=wrap;html=1;" vertex="1" parent="1">
          <mxGeometry x="391" y="375" width="80" height="30" as="geometry" />
        </mxCell>
        <mxCell id="aEqy1lIlVKsA6bxr-jBi-10" value="tambah.php" style="text;strokeColor=none;fillColor=none;align=left;verticalAlign=middle;spacingLeft=4;spacingRight=4;overflow=hidden;points=[[0,0.5],[1,0.5]];portConstraint=eastwest;rotatable=0;whiteSpace=wrap;html=1;" vertex="1" parent="1">
          <mxGeometry x="570" y="130" width="80" height="30" as="geometry" />
        </mxCell>
        <mxCell id="aEqy1lIlVKsA6bxr-jBi-11" value="simpan" style="rounded=0;whiteSpace=wrap;html=1;" vertex="1" parent="1">
          <mxGeometry x="561" y="50" width="98" height="50" as="geometry" />
        </mxCell>
        <mxCell id="aEqy1lIlVKsA6bxr-jBi-12" style="edgeStyle=none;rounded=0;orthogonalLoop=1;jettySize=auto;html=1;exitX=1;exitY=0.5;exitDx=0;exitDy=0;entryX=-0.027;entryY=0.413;entryDx=0;entryDy=0;entryPerimeter=0;" edge="1" parent="1" source="aEqy1lIlVKsA6bxr-jBi-2" target="aEqy1lIlVKsA6bxr-jBi-6">
          <mxGeometry relative="1" as="geometry" />
        </mxCell>
        <mxCell id="aEqy1lIlVKsA6bxr-jBi-55" style="edgeStyle=none;rounded=0;orthogonalLoop=1;jettySize=auto;html=1;exitX=0;exitY=0;exitDx=0;exitDy=0;entryX=1;entryY=0.25;entryDx=0;entryDy=0;" edge="1" parent="1" source="aEqy1lIlVKsA6bxr-jBi-13" target="aEqy1lIlVKsA6bxr-jBi-1">
          <mxGeometry relative="1" as="geometry" />
        </mxCell>
        <mxCell id="aEqy1lIlVKsA6bxr-jBi-66" style="edgeStyle=orthogonalEdgeStyle;curved=1;rounded=0;orthogonalLoop=1;jettySize=auto;html=1;exitX=1;exitY=0.75;exitDx=0;exitDy=0;entryX=0.75;entryY=1;entryDx=0;entryDy=0;" edge="1" parent="1" source="aEqy1lIlVKsA6bxr-jBi-13" target="aEqy1lIlVKsA6bxr-jBi-1">
          <mxGeometry relative="1" as="geometry" />
        </mxCell>
        <mxCell id="aEqy1lIlVKsA6bxr-jBi-13" value="siswa-&amp;gt;simpan_data&lt;div&gt;siswa-&amp;gt;hapus_data_siswa&lt;/div&gt;&lt;div&gt;siswa-&amp;gt;update_data_siswa&lt;/div&gt;" style="rounded=1;whiteSpace=wrap;html=1;" vertex="1" parent="1">
          <mxGeometry x="790" y="200" width="190" height="120" as="geometry" />
        </mxCell>
        <mxCell id="aEqy1lIlVKsA6bxr-jBi-14" value="siswacontroller.php" style="text;strokeColor=none;fillColor=none;align=left;verticalAlign=middle;spacingLeft=4;spacingRight=4;overflow=hidden;points=[[0,0.5],[1,0.5]];portConstraint=eastwest;rotatable=0;whiteSpace=wrap;html=1;" vertex="1" parent="1">
          <mxGeometry x="817.5" y="323" width="135" height="30" as="geometry" />
        </mxCell>
        <mxCell id="aEqy1lIlVKsA6bxr-jBi-57" style="edgeStyle=none;rounded=0;orthogonalLoop=1;jettySize=auto;html=1;exitX=1;exitY=0.5;exitDx=0;exitDy=0;" edge="1" parent="1" source="aEqy1lIlVKsA6bxr-jBi-15">
          <mxGeometry relative="1" as="geometry">
            <mxPoint x="1410" y="250" as="targetPoint" />
          </mxGeometry>
        </mxCell>
        <mxCell id="aEqy1lIlVKsA6bxr-jBi-62" style="edgeStyle=orthogonalEdgeStyle;curved=1;rounded=0;orthogonalLoop=1;jettySize=auto;html=1;exitX=0.5;exitY=0;exitDx=0;exitDy=0;entryX=0.5;entryY=0;entryDx=0;entryDy=0;" edge="1" parent="1" source="aEqy1lIlVKsA6bxr-jBi-15" target="aEqy1lIlVKsA6bxr-jBi-1">
          <mxGeometry relative="1" as="geometry">
            <Array as="points">
              <mxPoint x="1247" y="-80" />
              <mxPoint x="430" y="-80" />
            </Array>
          </mxGeometry>
        </mxCell>
        <mxCell id="aEqy1lIlVKsA6bxr-jBi-67" style="edgeStyle=orthogonalEdgeStyle;curved=1;rounded=0;orthogonalLoop=1;jettySize=auto;html=1;exitX=0.75;exitY=1;exitDx=0;exitDy=0;entryX=1;entryY=0.75;entryDx=0;entryDy=0;" edge="1" parent="1" source="aEqy1lIlVKsA6bxr-jBi-15" target="aEqy1lIlVKsA6bxr-jBi-37">
          <mxGeometry relative="1" as="geometry" />
        </mxCell>
        <mxCell id="aEqy1lIlVKsA6bxr-jBi-15" value="simpan_data()&lt;div&gt;tampil_data_semua()&lt;/div&gt;&lt;div&gt;update_data()&lt;/div&gt;&lt;div&gt;hapus_data()&lt;/div&gt;&lt;div&gt;tampil_data_by_id()&lt;/div&gt;" style="rounded=0;whiteSpace=wrap;html=1;" vertex="1" parent="1">
          <mxGeometry x="1161.54" y="60" width="170" height="140" as="geometry" />
        </mxCell>
        <mxCell id="aEqy1lIlVKsA6bxr-jBi-16" value="siswa.php" style="text;strokeColor=none;fillColor=none;align=left;verticalAlign=middle;spacingLeft=4;spacingRight=4;overflow=hidden;points=[[0,0.5],[1,0.5]];portConstraint=eastwest;rotatable=0;whiteSpace=wrap;html=1;" vertex="1" parent="1">
          <mxGeometry x="1206.54" y="205" width="80" height="30" as="geometry" />
        </mxCell>
        <mxCell id="aEqy1lIlVKsA6bxr-jBi-37" value="" style="rounded=1;whiteSpace=wrap;html=1;" vertex="1" parent="1">
          <mxGeometry x="630" y="440" width="160" height="120" as="geometry" />
        </mxCell>
        <mxCell id="aEqy1lIlVKsA6bxr-jBi-38" value="edit.php" style="text;strokeColor=none;fillColor=none;align=left;verticalAlign=middle;spacingLeft=4;spacingRight=4;overflow=hidden;points=[[0,0.5],[1,0.5]];portConstraint=eastwest;rotatable=0;whiteSpace=wrap;html=1;" vertex="1" parent="1">
          <mxGeometry x="669" y="560" width="80" height="30" as="geometry" />
        </mxCell>
        <mxCell id="aEqy1lIlVKsA6bxr-jBi-39" value="simpan" style="rounded=0;whiteSpace=wrap;html=1;" vertex="1" parent="1">
          <mxGeometry x="660" y="475" width="98" height="50" as="geometry" />
        </mxCell>
        <mxCell id="aEqy1lIlVKsA6bxr-jBi-51" style="edgeStyle=none;rounded=0;orthogonalLoop=1;jettySize=auto;html=1;exitX=0;exitY=0.25;exitDx=0;exitDy=0;entryX=1;entryY=0.321;entryDx=0;entryDy=0;entryPerimeter=0;" edge="1" parent="1" source="aEqy1lIlVKsA6bxr-jBi-13" target="aEqy1lIlVKsA6bxr-jBi-1">
          <mxGeometry relative="1" as="geometry" />
        </mxCell>
        <mxCell id="aEqy1lIlVKsA6bxr-jBi-56" value="" style="endArrow=classic;startArrow=classic;html=1;rounded=0;exitX=1;exitY=0.25;exitDx=0;exitDy=0;entryX=0;entryY=0.75;entryDx=0;entryDy=0;" edge="1" parent="1" source="aEqy1lIlVKsA6bxr-jBi-13" target="aEqy1lIlVKsA6bxr-jBi-15">
          <mxGeometry width="50" height="50" relative="1" as="geometry">
            <mxPoint x="1060" y="220" as="sourcePoint" />
            <mxPoint x="1110" y="170" as="targetPoint" />
          </mxGeometry>
        </mxCell>
        <mxCell id="aEqy1lIlVKsA6bxr-jBi-58" value="" style="rounded=0;whiteSpace=wrap;html=1;" vertex="1" parent="1">
          <mxGeometry x="1350" y="250" width="120" height="60" as="geometry" />
        </mxCell>
        <mxCell id="aEqy1lIlVKsA6bxr-jBi-59" value="koneksi.php" style="text;strokeColor=none;fillColor=none;align=left;verticalAlign=middle;spacingLeft=4;spacingRight=4;overflow=hidden;points=[[0,0.5],[1,0.5]];portConstraint=eastwest;rotatable=0;whiteSpace=wrap;html=1;" vertex="1" parent="1">
          <mxGeometry x="1380" y="320" width="80" height="30" as="geometry" />
        </mxCell>
        <mxCell id="aEqy1lIlVKsA6bxr-jBi-60" value="tampil_data_semua" style="text;strokeColor=none;fillColor=none;align=left;verticalAlign=middle;spacingLeft=4;spacingRight=4;overflow=hidden;points=[[0,0.5],[1,0.5]];portConstraint=eastwest;rotatable=0;whiteSpace=wrap;html=1;" vertex="1" parent="1">
          <mxGeometry x="370" y="188" width="120" height="30" as="geometry" />
        </mxCell>
        <mxCell id="aEqy1lIlVKsA6bxr-jBi-63" value="" style="endArrow=classic;startArrow=classic;html=1;rounded=0;curved=1;exitX=1.011;exitY=0.609;exitDx=0;exitDy=0;exitPerimeter=0;" edge="1" parent="1" source="aEqy1lIlVKsA6bxr-jBi-6">
          <mxGeometry width="50" height="50" relative="1" as="geometry">
            <mxPoint x="750" y="160" as="sourcePoint" />
            <mxPoint x="850" y="240" as="targetPoint" />
            <Array as="points">
              <mxPoint x="800" y="200" />
            </Array>
          </mxGeometry>
        </mxCell>
        <mxCell id="aEqy1lIlVKsA6bxr-jBi-64" value="" style="endArrow=classic;startArrow=classic;html=1;rounded=0;curved=1;exitX=1;exitY=0.5;exitDx=0;exitDy=0;" edge="1" parent="1">
          <mxGeometry width="50" height="50" relative="1" as="geometry">
            <mxPoint x="497.9999999999998" y="275" as="sourcePoint" />
            <mxPoint x="815.5" y="258" as="targetPoint" />
          </mxGeometry>
        </mxCell>
        <mxCell id="aEqy1lIlVKsA6bxr-jBi-65" value="" style="endArrow=classic;startArrow=classic;html=1;rounded=0;curved=1;exitX=1;exitY=0.25;exitDx=0;exitDy=0;" edge="1" parent="1" source="aEqy1lIlVKsA6bxr-jBi-37">
          <mxGeometry width="50" height="50" relative="1" as="geometry">
            <mxPoint x="760" y="330" as="sourcePoint" />
            <mxPoint x="810" y="280" as="targetPoint" />
          </mxGeometry>
        </mxCell>
        <mxCell id="aEqy1lIlVKsA6bxr-jBi-68" value="siswa_tampil_data_by_id" style="text;strokeColor=none;fillColor=none;align=left;verticalAlign=middle;spacingLeft=4;spacingRight=4;overflow=hidden;points=[[0,0.5],[1,0.5]];portConstraint=eastwest;rotatable=0;whiteSpace=wrap;html=1;" vertex="1" parent="1">
          <mxGeometry x="638" y="445" width="152" height="30" as="geometry" />
        </mxCell>
      </root>
    </mxGraphModel>
  </diagram>
</mxfile>
